<?xml version="1.0" encoding="utf-8"?>
<!-- Generator: Adobe Illustrator 22.1.0, SVG Export Plug-In . SVG Version: 6.00 Build 0)  -->
<svg version="1.1" id="レイヤー_1" xmlns="http://www.w3.org/2000/svg" xmlns:xlink="http://www.w3.org/1999/xlink" x="0px"
	 y="0px" viewBox="0 0 62.6 62.6" style="enable-background:new 0 0 62.6 62.6;" xml:space="preserve">
<style type="text/css">
	.st0{fill:#FCF9D9;stroke:#FFCCCC;stroke-width:2;stroke-miterlimit:10;}
	.st1{fill:#FFFFFF;}
	.st2{fill:#1F1F1F;}
	.st3{fill:#C30D23;}
	.st4{enable-background:new    ;}
</style>
<title>10058 [更新済み]logo</title>
<circle class="st0" cx="31.3" cy="31.3" r="30.3"/>
<polyline class="st1" points="7.6,27.5 7.6,32.3 52.5,32.3 52.5,27.5 "/>
<path class="st2" d="M45.9,8.7c-0.5-0.2-1-0.4-1.5-0.6l1,1.6c0.1,0.1,0.1,0.2,0.2,0.3c4.4,2.2,6.7,5.5,6.9,10.1H10.1l18.4-7.9
	c0.1-0.6,0.2-1.2,0.5-1.7L6.6,20.2H6.6c-0.2,0.1-0.3,0.3-0.4,0.6V39c0,0.4,0.3,0.7,0.7,0.7c0,0,0,0,0,0h46.2c0.4,0,0.7-0.3,0.7-0.6
	c0,0,0,0,0,0V20.8C53.8,15.4,51.1,11.2,45.9,8.7z M52.5,26.2H7.6v-4.8h44.9V26.2z M7.6,27.5h44.9v4.7H7.6V27.5z M7.6,38.4v-4.8h44.9
	v4.8L7.6,38.4z"/>
<ellipse class="st3" cx="24.8" cy="29.9" rx="1.5" ry="1.4"/>
<ellipse class="st3" cx="35.2" cy="29.9" rx="1.5" ry="1.4"/>
<ellipse class="st3" cx="16.5" cy="29.9" rx="1.5" ry="1.4"/>
<ellipse class="st3" cx="45.6" cy="29.9" rx="1.5" ry="1.4"/>
<g class="st4">
	<path class="st3" d="M15.7,45.3c0.6,0,1.1,0.1,1.7,0.4c0.2,0.1,0.4,0.2,0.5,0.2c0.1,0,0.2,0,0.3-0.1c0.1,0,0.1,0,0.2,0
		c0.2,0,0.4,0.1,0.5,0.3c0.4,0.5,0.6,1,0.6,1.7c0,0.5-0.2,0.8-0.5,1c-0.2,0.1-0.4,0.2-0.6,0.2c-0.2,0-0.4,0-0.5-0.1
		s-0.2-0.2-0.4-0.5c-0.2-0.3-0.3-0.5-0.4-0.7s-0.2-0.3-0.4-0.4C16.4,47.1,16,47,15.6,47c-0.4,0-0.7,0.1-1,0.4s-0.4,0.7-0.4,1.2
		c0,0.7,0.2,1.3,0.5,1.8c0.5,0.7,1.1,1.1,2,1.1c0.3,0,0.6-0.1,0.9-0.2s0.6-0.2,0.7-0.4c0.1-0.1,0.3-0.2,0.4-0.2
		c0.1,0,0.3,0.1,0.4,0.2s0.1,0.3,0.1,0.5c0,0.2-0.1,0.5-0.2,0.8s-0.3,0.5-0.5,0.7c-0.1,0.1-0.3,0.1-0.5,0.2c-0.1,0-0.3,0.1-0.6,0.2
		c-0.6,0.3-1.2,0.4-1.8,0.4c-0.7,0-1.3-0.1-2-0.4c-0.8-0.3-1.3-0.9-1.8-1.6c-0.4-0.7-0.6-1.4-0.6-2.1c0-0.9,0.3-1.7,0.8-2.4
		c0.5-0.6,1.1-1.1,1.8-1.4C14.5,45.4,15.1,45.3,15.7,45.3z"/>
</g>
<g class="st4">
	<path class="st3" d="M27.3,49.4l1.1,2.4c0.1,0.2,0.2,0.4,0.3,0.4s0.2,0.1,0.3,0.1c0.3,0,0.4,0.2,0.4,0.4c0,0.3-0.2,0.5-0.5,0.6
		s-0.9,0.2-1.7,0.2c-0.9,0-1.5,0-2-0.1c-0.2,0-0.4-0.1-0.5-0.2s-0.2-0.2-0.2-0.4c0-0.1,0-0.2,0.1-0.3s0.2-0.1,0.3-0.2
		c0.2-0.1,0.3-0.2,0.3-0.3c0-0.3-0.2-0.4-0.5-0.5c-0.3,0-0.8-0.1-1.4-0.1c-0.5,0-0.8,0-0.9,0.1c-0.1,0-0.1,0.1-0.2,0.2
		s-0.1,0.2-0.1,0.3c0,0.1,0,0.1,0,0.2s0.1,0.1,0.3,0.1c0.2,0.1,0.4,0.2,0.4,0.4c0,0.5-0.6,0.7-1.7,0.7c-0.6,0-1.1,0-1.4-0.1
		c-0.3-0.1-0.4-0.3-0.4-0.5c0-0.1,0-0.2,0.1-0.3s0.2-0.1,0.3-0.2c0.3-0.1,0.4-0.2,0.6-0.4s0.3-0.5,0.6-1l0.8-1.8
		c0.3-0.7,0.5-1.2,0.6-1.5s0.2-0.7,0.2-1c0-0.3,0-0.6,0.1-0.7s0.1-0.3,0.2-0.4c0.3-0.3,0.6-0.4,1-0.4c0.4,0,0.8,0.2,1.1,0.5
		C25.6,46.2,26.4,47.4,27.3,49.4z M23.2,50.2h1.1c0.2,0,0.3,0,0.3-0.1c0-0.1-0.1-0.4-0.4-0.9c-0.1-0.2-0.2-0.4-0.3-0.5
		s-0.1-0.1-0.2-0.1c-0.1,0-0.3,0.1-0.4,0.4c0,0-0.1,0.2-0.2,0.4C23.1,49.7,23,49.9,23,50C23,50.1,23.1,50.2,23.2,50.2z"/>
	<path class="st3" d="M36.4,47.1l-0.6,0.6c-0.2,0.2-0.3,0.4-0.3,0.6c0,0.1,0,0.2,0.1,0.3s0.2,0.2,0.3,0.4l2.2,2.5
		c0.2,0.2,0.3,0.4,0.4,0.4s0.2,0.1,0.3,0.2c0.2,0.1,0.4,0.2,0.4,0.3s0.1,0.3,0.1,0.4c0,0.4-0.3,0.6-0.9,0.6h-2.2
		c-0.2,0-0.3,0-0.4-0.1s-0.2-0.2-0.4-0.5c-0.3-0.4-0.7-0.9-1.2-1.4c-0.2-0.2-0.4-0.4-0.5-0.5s-0.2-0.1-0.2-0.1
		c-0.2,0-0.3,0.2-0.3,0.6c0,0.3,0.1,0.6,0.2,0.7c0,0,0.1,0.1,0.2,0.1c0.2,0.1,0.3,0.3,0.3,0.5c0,0.3-0.2,0.4-0.5,0.6
		s-0.9,0.2-1.7,0.2c-0.7,0-1.2,0-1.6-0.1c-0.1,0-0.3-0.1-0.3-0.2s-0.1-0.2-0.1-0.3c0-0.2,0.1-0.4,0.4-0.5c0.1-0.1,0.2-0.1,0.2-0.2
		s0.1-0.2,0.1-0.4c0.1-0.4,0.1-1.1,0.1-2c0-1.1,0-1.9-0.1-2.3c0-0.2-0.1-0.3-0.1-0.4s-0.2-0.2-0.3-0.2c-0.2-0.1-0.3-0.3-0.3-0.5
		c0-0.2,0.1-0.3,0.2-0.5s0.4-0.2,0.7-0.3c0.4-0.1,0.9-0.1,1.5-0.1c0.6,0,1.1,0.1,1.4,0.2c0.3,0.1,0.4,0.3,0.4,0.6
		c0,0.1,0,0.2-0.1,0.3s-0.1,0.2-0.3,0.3c-0.1,0.1-0.1,0.2-0.2,0.4s-0.1,0.4-0.1,0.6c0,0.3,0.1,0.5,0.2,0.5c0.1,0,0.2,0,0.3-0.1
		s0.3-0.3,0.5-0.6c0.3-0.4,0.4-0.6,0.4-0.7c0-0.1,0-0.2-0.1-0.3c-0.1-0.1-0.1-0.2-0.1-0.3c0-0.3,0.2-0.5,0.5-0.6s0.8-0.2,1.6-0.2
		c0.6,0,1,0,1.3,0.1c0.4,0.1,0.5,0.3,0.5,0.6c0,0.1,0,0.2-0.1,0.3s-0.2,0.2-0.3,0.2c-0.1,0-0.3,0-0.6,0c-0.2,0-0.4,0-0.5,0.1
		S36.6,46.9,36.4,47.1z"/>
	<path class="st3" d="M40.8,45.5h3c0.6,0,1.1,0,1.3,0s0.6-0.1,0.8-0.2c0.1,0,0.1,0,0.2,0c0.2,0,0.4,0.1,0.5,0.3
		c0.3,0.4,0.4,0.8,0.4,1.3c0,0.3-0.1,0.5-0.2,0.6s-0.3,0.2-0.4,0.2c-0.1,0-0.2,0-0.3-0.1s-0.2-0.2-0.3-0.4c-0.2-0.3-0.4-0.4-0.7-0.5
		s-0.7-0.1-1.3-0.1c-0.4,0-0.7,0.1-0.8,0.2C43.1,46.9,43,47,43,47.2s0,0.5,0,1.1c0,0.2,0,0.4,0.1,0.4s0.3,0.1,0.6,0.1
		c0.2,0,0.3,0,0.4-0.1s0.1-0.2,0.1-0.4c0-0.2,0.1-0.4,0.1-0.5s0.1-0.2,0.2-0.2c0.1-0.1,0.2-0.1,0.3-0.1c0.2,0,0.3,0.1,0.4,0.2
		c0.1,0.1,0.2,0.3,0.2,0.6s0.1,0.6,0.1,0.9c0,0.6-0.1,1.1-0.3,1.5c-0.1,0.2-0.3,0.3-0.5,0.3c-0.1,0-0.2,0-0.3-0.1s-0.1-0.2-0.1-0.4
		c-0.1-0.4-0.3-0.7-0.8-0.7c-0.2,0-0.3,0.1-0.4,0.2s-0.1,0.3-0.1,0.6c0,0.2,0,0.4,0,0.7s0.1,0.5,0.1,0.6c0,0.1,0.1,0.2,0.3,0.2
		s0.4,0.1,0.8,0.1c0.6,0,1-0.1,1.3-0.2s0.5-0.4,0.7-0.8c0.1-0.2,0.2-0.4,0.3-0.5s0.2-0.1,0.3-0.1c0.2,0,0.3,0.1,0.4,0.2
		s0.2,0.3,0.2,0.5c0,0.2-0.1,0.5-0.2,0.9s-0.3,0.7-0.4,0.9c-0.1,0.1-0.2,0.2-0.2,0.3s-0.1,0.1-0.2,0.1c-0.1,0-0.2,0-0.3,0
		c-0.2,0-0.6-0.1-1-0.1h-5c-0.2,0-0.4,0-0.5-0.1s-0.2-0.2-0.2-0.4c0-0.1,0-0.2,0.1-0.2s0.2-0.1,0.3-0.2c0.1-0.1,0.2-0.1,0.3-0.2
		s0.1-0.2,0.1-0.3c0.1-0.6,0.2-1.4,0.2-2.4c0-1.5-0.1-2.5-0.3-2.9c0-0.1-0.1-0.1-0.1-0.2s-0.1-0.1-0.3-0.1c-0.2-0.1-0.3-0.2-0.3-0.4
		c0-0.1,0-0.2,0.1-0.3s0.2-0.2,0.3-0.2C40.1,45.5,40.4,45.5,40.8,45.5z"/>
	<path class="st3" d="M49.5,45.6c0.3,0,0.6,0.1,0.9,0.4c0.3,0.3,0.5,0.8,0.5,1.4c0,0.4-0.1,0.8-0.2,1.3s-0.3,0.9-0.6,1.2
		c-0.3,0.4-0.5,0.6-0.6,0.6c-0.2,0-0.4-0.3-0.7-0.8c-0.2-0.4-0.4-0.8-0.5-1.2s-0.2-0.8-0.2-1.2c0-0.4,0.1-0.8,0.3-1.1
		C48.7,45.7,49,45.6,49.5,45.6z M49.5,51.1c0.3,0,0.6,0.1,0.9,0.4c0.2,0.2,0.4,0.5,0.4,0.9c0,0.3-0.1,0.6-0.4,0.9s-0.5,0.4-0.9,0.4
		c-0.3,0-0.6-0.1-0.9-0.3c-0.3-0.2-0.4-0.6-0.4-0.9c0-0.3,0.1-0.6,0.3-0.9C48.8,51.2,49.2,51.1,49.5,51.1z"/>
</g>
<g class="st4">
	<path class="st3" d="M17.8,43.4c0,0.1,0,0.1-0.1,0.2s-0.1,0.1-0.2,0.1c-0.1,0-0.2,0-0.2-0.1l-0.2-0.4H16l-0.2,0.4
		c0,0.1-0.1,0.1-0.2,0.1c-0.1,0-0.1,0-0.2-0.1c-0.1,0-0.1-0.1-0.1-0.2c0,0,0-0.1,0-0.1l1-1.9c0-0.1,0.1-0.1,0.3-0.1s0.2,0,0.3,0.1
		l1,1.9C17.8,43.3,17.8,43.4,17.8,43.4z M17,42.7l-0.4-0.9l-0.4,0.9H17z"/>
	<path class="st3" d="M20.8,43.4c0,0.2-0.1,0.2-0.2,0.2c-0.1,0-0.2-0.1-0.2-0.2v-1.1l-0.5,1c0,0.1-0.1,0.1-0.2,0.1
		c-0.1,0-0.2,0-0.2-0.1l-0.5-1v1.2c0,0.2-0.1,0.2-0.2,0.2c-0.1,0-0.2-0.1-0.2-0.2v-2c0-0.2,0.1-0.2,0.2-0.2c0.1,0,0.2,0,0.3,0.1
		l0.7,1.5l0.7-1.5c0-0.1,0.1-0.1,0.2-0.1c0.2,0,0.2,0.1,0.2,0.2V43.4z"/>
	<path class="st3" d="M23.8,43.4c0,0.1,0,0.1-0.1,0.2s-0.1,0.1-0.2,0.1c-0.1,0-0.2,0-0.2-0.1l-0.2-0.4h-1.2l-0.2,0.4
		c0,0.1-0.1,0.1-0.2,0.1c-0.1,0-0.1,0-0.2-0.1c-0.1,0-0.1-0.1-0.1-0.2c0,0,0-0.1,0-0.1l1-1.9c0-0.1,0.1-0.1,0.3-0.1s0.2,0,0.3,0.1
		l1,1.9C23.8,43.3,23.8,43.4,23.8,43.4z M22.9,42.7l-0.4-0.9l-0.4,0.9H22.9z"/>
	<path class="st3" d="M24.8,43.4c0,0.2-0.1,0.2-0.2,0.2c-0.1,0-0.2-0.1-0.2-0.2v-2c0-0.2,0.1-0.2,0.2-0.2c0.2,0,0.2,0.1,0.2,0.2
		V43.4z"/>
	<path class="st3" d="M27.4,43.4c0,0.2-0.1,0.2-0.2,0.2c-0.1,0-0.2,0-0.2-0.1L25.8,42v1.4c0,0.2-0.1,0.2-0.2,0.2
		c-0.1,0-0.2-0.1-0.2-0.2v-2c0-0.2,0.1-0.2,0.2-0.2c0.1,0,0.2,0,0.2,0.1l1.2,1.5v-1.4c0-0.2,0.1-0.2,0.2-0.2c0.2,0,0.2,0.1,0.2,0.2
		V43.4z"/>
	<path class="st3" d="M30.2,42.4c0,0.4-0.1,0.7-0.3,0.9c-0.2,0.2-0.5,0.4-0.9,0.4c-0.4,0-0.7-0.1-0.9-0.4c-0.2-0.2-0.3-0.5-0.3-0.9
		c0-0.4,0.1-0.6,0.3-0.9c0.2-0.2,0.5-0.3,0.8-0.3c0.3,0,0.6,0.1,0.8,0.3C30.1,41.8,30.2,42.1,30.2,42.4z M29.8,42.4
		c0-0.2,0-0.4-0.1-0.6c-0.1-0.2-0.3-0.3-0.5-0.3c-0.2,0-0.4,0.1-0.5,0.3c-0.1,0.1-0.2,0.3-0.2,0.6c0,0.2,0.1,0.4,0.2,0.5
		c0.1,0.2,0.3,0.2,0.5,0.2c0.2,0,0.4-0.1,0.5-0.2C29.7,42.9,29.8,42.7,29.8,42.4z"/>
</g>
<g class="st4">
	<path class="st3" d="M34.1,42.4c0,0.3-0.1,0.6-0.3,0.8c-0.2,0.2-0.4,0.4-0.8,0.4h-0.8c-0.3,0-0.4-0.1-0.4-0.4v-1.6
		c0-0.2,0.1-0.4,0.4-0.4H33c0.3,0,0.6,0.1,0.8,0.4C34,41.8,34.1,42.1,34.1,42.4z M33.6,42.4c0-0.2,0-0.4-0.1-0.5
		c-0.1-0.2-0.3-0.2-0.5-0.2h-0.5c-0.1,0-0.1,0-0.1,0c0,0,0,0.1,0,0.1V43c0,0.1,0,0.1,0,0.1c0,0,0.1,0,0.1,0H33
		c0.2,0,0.3-0.1,0.5-0.2C33.5,42.8,33.6,42.6,33.6,42.4z"/>
</g>
<g class="st4">
	<path class="st3" d="M36.9,43.4c0,0.1,0,0.1-0.1,0.2s-0.1,0.1-0.2,0.1c-0.1,0-0.2,0-0.2-0.1l-0.2-0.4h-1.2l-0.2,0.4
		c0,0.1-0.1,0.1-0.2,0.1c-0.1,0-0.1,0-0.2-0.1c-0.1,0-0.1-0.1-0.1-0.2c0,0,0-0.1,0-0.1l1-1.9c0-0.1,0.1-0.1,0.3-0.1
		c0.1,0,0.2,0,0.3,0.1l1,1.9C36.9,43.3,36.9,43.4,36.9,43.4z M36.1,42.7l-0.4-0.9l-0.4,0.9H36.1z"/>
	<path class="st3" d="M37.9,43.4c0,0.2-0.1,0.2-0.2,0.2c-0.1,0-0.2-0.1-0.2-0.2v-2c0-0.2,0.1-0.2,0.2-0.2c0.2,0,0.2,0.1,0.2,0.2
		V43.4z"/>
	<path class="st3" d="M40.6,43c0,0.5-0.4,0.7-1.1,0.7c-0.3,0-0.6-0.1-0.9-0.3c-0.2-0.1-0.2-0.2-0.2-0.3c0-0.1,0-0.1,0.1-0.2
		c0,0,0.1-0.1,0.2-0.1c0,0,0.1,0,0.2,0.1c0.2,0.1,0.3,0.2,0.3,0.2c0.1,0.1,0.3,0.1,0.4,0.1c0.4,0,0.6-0.1,0.6-0.3
		c0-0.1-0.1-0.1-0.3-0.2c-0.2-0.1-0.4-0.1-0.6-0.2c-0.3-0.1-0.5-0.2-0.6-0.3c-0.2-0.1-0.2-0.3-0.2-0.4c0-0.2,0.1-0.4,0.3-0.5
		c0.2-0.1,0.4-0.1,0.7-0.1c0.4,0,0.6,0.1,0.9,0.2c0.1,0,0.1,0.1,0.1,0.2c0,0.1-0.1,0.2-0.2,0.2c0,0-0.1,0-0.3-0.1
		c-0.2-0.1-0.3-0.1-0.4-0.1c-0.3,0-0.5,0.1-0.5,0.2c0,0.1,0,0.1,0.1,0.1c0.1,0,0.3,0.1,0.5,0.2c0.4,0.1,0.6,0.2,0.7,0.3
		C40.5,42.6,40.6,42.8,40.6,43z"/>
	<path class="st3" d="M43.2,42.8c0,0.6-0.3,0.9-1,0.9c-0.3,0-0.6-0.1-0.7-0.2c-0.2-0.2-0.3-0.4-0.3-0.7v-1.3c0-0.2,0.1-0.2,0.2-0.2
		c0.2,0,0.2,0.1,0.2,0.2v1.2c0,0.2,0,0.3,0.1,0.4c0.1,0.1,0.2,0.1,0.4,0.1c0.2,0,0.4,0,0.4-0.1c0.1-0.1,0.1-0.2,0.1-0.4v-1.3
		c0-0.1,0.1-0.2,0.2-0.2c0.2,0,0.2,0.1,0.2,0.2V42.8z"/>
	<path class="st3" d="M45.8,43.4c0,0.1,0,0.1-0.1,0.2c0,0-0.1,0.1-0.2,0.1c-0.1,0-0.1,0-0.2-0.1l-0.8-1.1l-0.4,0.3v0.7
		c0,0.1,0,0.1-0.1,0.2c0,0-0.1,0.1-0.2,0.1c-0.1,0-0.1,0-0.2-0.1c-0.1,0-0.1-0.1-0.1-0.2v-2c0-0.1,0-0.1,0.1-0.2
		c0,0,0.1-0.1,0.2-0.1c0.1,0,0.1,0,0.2,0.1c0.1,0,0.1,0.1,0.1,0.2v0.7l1.2-0.9c0,0,0.1-0.1,0.1-0.1c0.1,0,0.1,0,0.2,0.1
		c0,0,0.1,0.1,0.1,0.2c0,0.1,0,0.1-0.1,0.2L45,42.1l0.8,1.1C45.8,43.3,45.8,43.4,45.8,43.4z"/>
	<path class="st3" d="M46.8,43.4c0,0.2-0.1,0.2-0.2,0.2c-0.1,0-0.2-0.1-0.2-0.2v-2c0-0.2,0.1-0.2,0.2-0.2c0.2,0,0.2,0.1,0.2,0.2
		V43.4z"/>
</g>
<polygon class="st1" points="42.3,8.1 49.7,13.6 51,19.1 12.7,20.1 "/>
<path class="st3" d="M35.5,18.1h3.7c2.8,0.1,5-2.1,5.1-4.9c0-0.9-0.2-1.7-0.6-2.5l-3-5.1c-1.2-1.9-3.6-2.4-5.5-1.3
	C34.8,4.6,34.3,5,34,5.5l-3,5.1c-1.3,2.4-0.5,5.5,2,6.8C33.8,17.9,34.6,18.1,35.5,18.1z"/>
</svg>
